<?xml version="1.0" encoding="UTF-8" standalone="no"?>
<svg width="40px" height="40px" viewBox="0 0 40 40" version="1.1" xmlns="http://www.w3.org/2000/svg" xmlns:xlink="http://www.w3.org/1999/xlink" xmlns:sketch="http://www.bohemiancoding.com/sketch/ns">
    <!-- Generator: Sketch 3.3 (11970) - http://www.bohemiancoding.com/sketch -->
    <title>Discount</title>
    <desc>Created with Sketch.</desc>
    <defs></defs>
    <g id="Welcome" stroke="none" stroke-width="1" fill="none" fill-rule="evenodd" sketch:type="MSPage">
        <g id="Desktop" sketch:type="MSArtboardGroup" transform="translate(-42.000000, -1111.000000)" fill="#2189D9">
            <g id="Why" sketch:type="MSLayerGroup" transform="translate(42.000000, 1024.000000)">
                <path d="M20,123.865368 L14.8236191,126.318517 L11.5673159,121.605837 L5.85786438,121.142136 L5.39416274,115.432684 L0.681483474,112.176381 L3.13463185,107 L0.681483474,101.823619 L5.39416274,98.5673159 L5.85786438,92.8578644 L11.5673159,92.3941627 L14.8236191,87.6814835 L20,90.1346318 L25.1763809,87.6814835 L28.4326841,92.3941627 L34.1421356,92.8578644 L34.6058373,98.5673159 L39.3185165,101.823619 L36.8653682,107 L39.3185165,112.176381 L34.6058373,115.432684 L34.1421356,121.142136 L28.4326841,121.605837 L25.1763809,126.318517 L20,123.865368 Z M8,107.67 L13.4,107.67 L13.4,110.17 L8,110.17 L8,107.67 Z M21.88,103.96 C21.88,104.493336 21.7833343,104.979998 21.59,105.42 C21.3966657,105.860002 21.1400016,106.238332 20.82,106.555 C20.4999984,106.871668 20.1283355,107.116666 19.705,107.29 C19.2816646,107.463334 18.8400023,107.55 18.38,107.55 C17.8733308,107.55 17.4083355,107.463334 16.985,107.29 C16.5616646,107.116666 16.1950016,106.871668 15.885,106.555 C15.5749985,106.238332 15.3333342,105.860002 15.16,105.42 C14.9866658,104.979998 14.9,104.493336 14.9,103.96 C14.9,103.406664 14.9866658,102.905002 15.16,102.455 C15.3333342,102.004998 15.5749985,101.620002 15.885,101.3 C16.1950016,100.979998 16.5616646,100.731668 16.985,100.555 C17.4083355,100.378332 17.8733308,100.29 18.38,100.29 C18.8866692,100.29 19.3549979,100.378332 19.785,100.555 C20.2150022,100.731668 20.5849985,100.979998 20.895,101.3 C21.2050016,101.620002 21.4466658,102.004998 21.62,102.455 C21.7933342,102.905002 21.88,103.406664 21.88,103.96 Z M19.5,103.96 C19.5,103.619998 19.471667,103.338334 19.415,103.115 C19.3583331,102.891666 19.2800005,102.713334 19.18,102.58 C19.0799995,102.446666 18.9616674,102.353334 18.825,102.3 C18.6883327,102.246666 18.5400008,102.22 18.38,102.22 C18.2199992,102.22 18.073334,102.246666 17.94,102.3 C17.806666,102.353334 17.6933338,102.446666 17.6,102.58 C17.5066662,102.713334 17.4333336,102.891666 17.38,103.115 C17.3266664,103.338334 17.3,103.619998 17.3,103.96 C17.3,104.280002 17.3266664,104.546666 17.38,104.76 C17.4333336,104.973334 17.5066662,105.143333 17.6,105.27 C17.6933338,105.396667 17.806666,105.486666 17.94,105.54 C18.073334,105.593334 18.2199992,105.62 18.38,105.62 C18.5400008,105.62 18.6883327,105.593334 18.825,105.54 C18.9616674,105.486666 19.0799995,105.396667 19.18,105.27 C19.2800005,105.143333 19.3583331,104.973334 19.415,104.76 C19.471667,104.546666 19.5,104.280002 19.5,103.96 Z M26.46,100.89 C26.5600005,100.776666 26.6833326,100.671667 26.83,100.575 C26.9766674,100.478333 27.1799987,100.43 27.44,100.43 L29.7,100.43 L18.72,114.56 C18.6199995,114.686667 18.4950007,114.791666 18.345,114.875 C18.1949992,114.958334 18.0133344,115 17.8,115 L15.48,115 L26.46,100.89 Z M30.26,111.58 C30.26,112.113336 30.1633343,112.601664 29.97,113.045 C29.7766657,113.488336 29.5200016,113.868332 29.2,114.185 C28.8799984,114.501668 28.5083355,114.746666 28.085,114.92 C27.6616646,115.093334 27.2200023,115.18 26.76,115.18 C26.2533308,115.18 25.7883355,115.093334 25.365,114.92 C24.9416646,114.746666 24.5750016,114.501668 24.265,114.185 C23.9549985,113.868332 23.7133342,113.488336 23.54,113.045 C23.3666658,112.601664 23.28,112.113336 23.28,111.58 C23.28,111.026664 23.3666658,110.525002 23.54,110.075 C23.7133342,109.624998 23.9549985,109.240002 24.265,108.92 C24.5750016,108.599998 24.9416646,108.351668 25.365,108.175 C25.7883355,107.998332 26.2533308,107.91 26.76,107.91 C27.2666692,107.91 27.7349979,107.998332 28.165,108.175 C28.5950022,108.351668 28.9649985,108.599998 29.275,108.92 C29.5850016,109.240002 29.8266658,109.624998 30,110.075 C30.1733342,110.525002 30.26,111.026664 30.26,111.58 Z M27.88,111.58 C27.88,111.246665 27.8516669,110.968334 27.795,110.745 C27.738333,110.521666 27.6600005,110.343334 27.56,110.21 C27.4599995,110.076666 27.3416673,109.983334 27.205,109.93 C27.0683326,109.876666 26.9200008,109.85 26.76,109.85 C26.5999992,109.85 26.453334,109.876666 26.32,109.93 C26.186666,109.983334 26.0733338,110.076666 25.98,110.21 C25.8866662,110.343334 25.8133336,110.521666 25.76,110.745 C25.7066664,110.968334 25.68,111.246665 25.68,111.58 C25.68,111.900002 25.7066664,112.166666 25.76,112.38 C25.8133336,112.593334 25.8866662,112.763333 25.98,112.89 C26.0733338,113.016667 26.186666,113.106666 26.32,113.16 C26.453334,113.213334 26.5999992,113.24 26.76,113.24 C26.9200008,113.24 27.0683326,113.213334 27.205,113.16 C27.3416673,113.106666 27.4599995,113.016667 27.56,112.89 C27.6600005,112.763333 27.738333,112.593334 27.795,112.38 C27.8516669,112.166666 27.88,111.900002 27.88,111.58 Z" id="Discount" sketch:type="MSShapeGroup"></path>
            </g>
        </g>
    </g>
</svg>