<?xml version="1.0" encoding="UTF-8" standalone="no"?>
<svg width="42px" height="36px" viewBox="0 0 42 36" version="1.1" xmlns="http://www.w3.org/2000/svg" xmlns:xlink="http://www.w3.org/1999/xlink" xmlns:sketch="http://www.bohemiancoding.com/sketch/ns">
    <!-- Generator: Sketch 3.3 (11970) - http://www.bohemiancoding.com/sketch -->
    <title>Pig</title>
    <desc>Created with Sketch.</desc>
    <defs></defs>
    <g id="Welcome" stroke="none" stroke-width="1" fill="none" fill-rule="evenodd" sketch:type="MSPage">
        <g id="Desktop" sketch:type="MSArtboardGroup" transform="translate(-362.000000, -1112.000000)" fill="#2189D9">
            <g id="Why" sketch:type="MSLayerGroup" transform="translate(42.000000, 1024.000000)">
                <path d="M346.539217,97.482575 C346.696395,96.798816 346.779442,96.0867463 346.779442,95.35528 C346.779442,95.23055 346.777027,95.1063839 346.772242,94.9828261 C347.559668,95.1927904 348.32144,95.4487329 349.052748,95.7467459 L349.052748,95.7467459 C352.142372,92.5403811 357.286985,92.2030172 357.286985,92.2030172 L356.354978,101.523087 C357.030877,102.548198 357.550469,103.651536 357.887869,104.812069 L359.388493,104.812069 C359.388493,104.812069 361.490002,106.913577 361.490002,109.015086 C361.490002,111.116594 359.388493,113.218103 359.388493,113.218103 L357.049253,113.218103 L357.049253,113.218103 C356.109833,115.048421 354.694359,116.677103 352.928501,118.002042 L352.928501,118.002042 L353.9284,121.733713 L347.838696,123.365445 L347.161398,120.837734 C345.399626,121.346925 343.502492,121.624137 341.52567,121.624137 C339.548848,121.624137 337.651715,121.346925 335.889943,120.837734 L335.212645,123.365445 L329.12294,121.733713 L330.122839,118.002042 L330.122839,118.002042 C327.525738,116.053414 325.686534,113.447774 325.005015,110.509951 C323.681743,110.036211 322.547239,108.99801 321.621395,107.573941 C320.814657,106.333073 320.312204,105.071377 320.058643,104.164723 C319.824197,103.326415 320.313723,102.456777 321.152031,102.222331 C321.990338,101.987885 322.859976,102.477411 323.094422,103.315719 C323.133801,103.456524 323.226264,103.736791 323.372297,104.103492 C323.616929,104.717781 323.916099,105.320279 324.26422,105.855734 C324.440515,106.126898 324.61851,106.36747 324.799231,106.577086 L324.799231,106.577086 C325.147902,103.768289 326.543876,101.210672 328.665026,99.1659632 L328.665026,99.1659632 C329.286794,100.576533 330.243181,101.806426 331.433622,102.755078 C330.982562,103.303164 330.566521,103.895189 330.188099,104.532436 C329.849755,105.102194 329.911784,105.798627 330.290864,106.294769 C330.409811,106.450476 330.559952,106.586467 330.73874,106.692637 C331.487191,107.137097 332.454237,106.890662 332.898696,106.14221 C334.195124,103.959077 336.045213,102.471498 338.338568,101.556707 C340.759592,100.590991 343.352765,100.358847 345.579297,100.545246 C345.805437,100.564178 345.956274,100.582048 346.021021,100.591728 C346.881927,100.720434 347.684166,100.126869 347.812872,99.2659631 C347.890121,98.7492512 347.707183,98.2536732 347.362418,97.91217 C347.144453,97.6961479 346.861759,97.5417521 346.539217,97.482575 Z M343.144615,97.3565051 C343.455975,96.5749902 343.627179,95.7224399 343.627179,94.8299029 C343.627179,91.0578517 340.569327,88 336.797276,88 C333.025225,88 329.967373,91.0578517 329.967373,94.8299029 C329.967373,97.3809808 331.366022,99.6053867 333.43833,100.778131 C334.555422,99.8851144 335.807107,99.1723548 337.170442,98.6285377 C339.162771,97.8338224 341.204921,97.451525 343.144615,97.3565051 Z M352.55859,106.913577 C353.429064,106.913577 354.134722,106.207919 354.134722,105.337446 C354.134722,104.466972 353.429064,103.761314 352.55859,103.761314 C351.688117,103.761314 350.982459,104.466972 350.982459,105.337446 C350.982459,106.207919 351.688117,106.913577 352.55859,106.913577 Z" id="Pig" sketch:type="MSShapeGroup"></path>
            </g>
        </g>
    </g>
</svg>