<?xml version="1.0" encoding="UTF-8" standalone="no"?>
<svg width="40px" height="40px" viewBox="0 0 40 40" version="1.1" xmlns="http://www.w3.org/2000/svg" xmlns:xlink="http://www.w3.org/1999/xlink" xmlns:sketch="http://www.bohemiancoding.com/sketch/ns">
    <!-- Generator: Sketch 3.3 (11970) - http://www.bohemiancoding.com/sketch -->
    <title>Share</title>
    <desc>Created with Sketch.</desc>
    <defs></defs>
    <g id="Welcome" stroke="none" stroke-width="1" fill="none" fill-rule="evenodd" sketch:type="MSPage">
        <g id="Desktop" sketch:type="MSArtboardGroup" transform="translate(-682.000000, -1111.000000)" fill="#2189D9">
            <g id="Why" sketch:type="MSLayerGroup" transform="translate(42.000000, 1024.000000)">
                <path d="M655.109252,110.476534 C654.594437,109.753602 654.235905,108.911657 654.082958,108 L647.873983,108 C647.42994,109.725227 645.863839,111 644,111 C641.790861,111 640,109.209139 640,107 C640,104.790861 641.790861,103 644,103 C645.863839,103 647.42994,104.274773 647.873983,106 L654.082958,106 L654.082958,106 C654.235905,105.088343 654.594437,104.246398 655.109252,103.523466 L655.109252,103.523466 L646.293415,94.707629 C645.90178,94.8950478 645.463147,95 645,95 C643.343146,95 642,93.6568542 642,92 C642,90.3431458 643.343146,89 645,89 C646.656854,89 648,90.3431458 648,92 C648,92.4631465 647.895048,92.9017802 647.707629,93.2934155 L656.523466,102.109252 C657.246398,101.594437 658.088343,101.235905 659,101.082958 L659,94.8739825 C657.274773,94.4299397 656,92.8638394 656,91 C656,88.790861 657.790861,87 660,87 C662.209139,87 664,88.790861 664,91 C664,92.8638394 662.725227,94.4299397 661,94.8739825 L661,94.8739825 L661,101.082958 C661.911657,101.235905 662.753602,101.594437 663.476534,102.109252 L672.292371,93.2934155 C672.104952,92.9017802 672,92.4631465 672,92 C672,90.3431458 673.343146,89 675,89 C676.656854,89 678,90.3431458 678,92 C678,93.6568542 676.656854,95 675,95 C674.536853,95 674.09822,94.8950478 673.706585,94.707629 L664.890748,103.523466 C665.405563,104.246398 665.764095,105.088343 665.917042,106 L672.126017,106 C672.57006,104.274773 674.136161,103 676,103 C678.209139,103 680,104.790861 680,107 C680,109.209139 678.209139,111 676,111 C674.136161,111 672.57006,109.725227 672.126017,108 L665.917042,108 C665.764095,108.911657 665.405563,109.753602 664.890748,110.476534 L673.706585,119.292371 C674.09822,119.104952 674.536853,119 675,119 C676.656854,119 678,120.343146 678,122 C678,123.656854 676.656854,125 675,125 C673.343146,125 672,123.656854 672,122 C672,121.536853 672.104952,121.09822 672.292371,120.706585 L663.476534,111.890748 C662.753602,112.405563 661.911657,112.764095 661,112.917042 L661,119.126017 C662.725227,119.57006 664,121.136161 664,123 C664,125.209139 662.209139,127 660,127 C657.790861,127 656,125.209139 656,123 C656,121.136161 657.274773,119.57006 659,119.126017 L659,112.917042 C658.088343,112.764095 657.246398,112.405563 656.523466,111.890748 L647.707629,120.706585 C647.895048,121.09822 648,121.536853 648,122 C648,123.656854 646.656854,125 645,125 C643.343146,125 642,123.656854 642,122 C642,120.343146 643.343146,119 645,119 C645.463147,119 645.90178,119.104952 646.293415,119.292371 L655.109252,110.476534 Z" id="Share" sketch:type="MSShapeGroup"></path>
            </g>
        </g>
    </g>
</svg>